<?xml version="1.0" encoding="UTF-8"?>
<svg width="22px" height="22px" viewBox="0 0 22 22" version="1.1" xmlns="http://www.w3.org/2000/svg" xmlns:xlink="http://www.w3.org/1999/xlink">
    <!-- Generator: Sketch 48.2 (47327) - http://www.bohemiancoding.com/sketch -->
    <title>tipp-icon-btn</title>
    <desc>Created with Sketch.</desc>
    <defs>
        <linearGradient x1="31.5423174%" y1="-7.20453096%" x2="95.0930105%" y2="58.7247405%" id="linearGradient-1">
            <stop stop-color="#3E2723" stop-opacity="0.2" offset="0%"></stop>
            <stop stop-color="#3E2723" stop-opacity="0.02" offset="100%"></stop>
        </linearGradient>
        <linearGradient x1="15.3864382%" y1="33.6995905%" x2="83.7775232%" y2="65.59088%" id="linearGradient-2">
            <stop stop-color="#FFFFFF" stop-opacity="0.2" offset="0%"></stop>
            <stop stop-color="#FFFFFF" stop-opacity="0" offset="100%"></stop>
        </linearGradient>
    </defs>
    <g id="Page-1" stroke="none" stroke-width="1" fill="none" fill-rule="evenodd">
        <g id="if_hold_coin_donate_money_insert_2_2637952" fill-rule="nonzero">
            <circle id="Oval" fill="#4CB057" cx="6" cy="16" r="6"></circle>
            <path d="M6,10.25 C8.5279541,10.25 10.7025757,11.7871704 11.6409912,13.9754028 C10.8078003,11.6616211 8.59729,10 6,10 C3.40271,10 1.1921997,11.6616211 0.3590088,13.9754028 C1.2974243,11.7871704 3.4720459,10.25 6,10.25 Z" id="Shape" fill="#FFFFFF" opacity="0.2"></path>
            <path d="M6,21.75 C3.4720459,21.75 1.2974243,20.2128296 0.3590088,18.0245972 C1.1921997,20.3383789 3.40271,22 6,22 C8.59729,22 10.8078003,20.3383789 11.6409912,18.0245972 C10.7025757,20.2128296 8.5279541,21.75 6,21.75 Z" id="Shape" fill="#000000" opacity="0.1"></path>
            <path d="M5.75,14 L8,14 L8,13 L6.5,13 L6.5,12.5 L5.5,12.5 L5.5,13.0252686 C4.6541138,13.1478271 4,13.8707275 4,14.75 C4,15.7148438 4.7851563,16.5 5.75,16.5 L6.25,16.5 C6.6630859,16.5 7,16.8364258 7,17.25 C7,17.6635742 6.6630859,18 6.25,18 L4,18 L4,19 L5.5,19 L5.5,19.5 L6.5,19.5 L6.5,18.9747314 C7.3458862,18.8521729 8,18.1292725 8,17.25 C8,16.2851562 7.2148437,15.5 6.25,15.5 L5.75,15.5 C5.3369141,15.5 5,15.1635742 5,14.75 C5,14.3364258 5.3369141,14 5.75,14 Z" id="Shape" fill="#FFFFFF"></path>
            <path d="M17.6787109,0.1005859 L17.4150391,0 L17.1923828,0.1738281 C17.1738281,0.1879883 15.3261719,1.5537109 13.8496094,2.0190429 C13.4990235,2.1298827 13.0048828,2.2675781 12.4394531,2.4252929 C9.7236328,3.1831054 7.4130859,3.8725585 6.6464843,4.6367187 C5.7931519,5.4887695 5.232605,8.8439331 5.0516968,10.0820923 C5.3613281,10.0327759 5.6764526,10 6,10 C6.93927,10 7.8209229,10.2279053 8.6121826,10.6131592 C7.6538086,11.0862427 6.0425415,12.4199829 5.8017578,13.6040039 C5.7050781,14.0810547 5.8242187,14.503418 6.1464844,14.8251953 C6.6044922,15.2817383 7.1835938,15.465332 7.8017578,15.465332 C8.8105469,15.4648437 9.9238281,14.9755859 10.7832031,14.383789 C11.8935547,13.6201171 13.2050781,13.0532226 14.0478515,12.9731445 C14.1874961,12.9599609 14.3203124,12.9541015 14.4511718,12.9477539 C15.1728515,12.9140625 15.9199218,12.8793945 17.2939452,11.8823242 C18.0322265,11.3461914 18.4570311,10.6474609 18.9062499,9.9072265 C19.524414,8.8901367 20.1630858,7.8383788 21.7499999,6.9204101 L22,6.7763672 L22,6.487793 C22,1.7392578 17.7216797,0.1171875 17.6787109,0.1005859 Z M9.8720093,8.3999023 C10.1434326,8.3225708 10.5812989,8.1919555 10.9267578,8.0600585 C11.0332031,8.1206054 11.1533203,8.1728515 11.2802734,8.2285155 C11.4863281,8.3188475 11.711914,8.4174803 11.8876953,8.5551757 C11.3970337,9.2418212 10.1550903,9.9415893 9.0689697,10.4061889 L9.8720093,8.3999023 Z" id="Shape" fill="#888888"></path>
            <path d="M13.8496094,2.269043 C15.3261719,1.803711 17.1738282,0.4379883 17.1923828,0.4238282 L17.4150391,0.25 L17.678711,0.3505859 C17.7216797,0.3671875 22,1.9892578 22,6.737793 L22,6.487793 C22,1.7392578 17.7216797,0.1171875 17.6787109,0.100586 L17.4150391,0 L17.1923828,0.1738281 C17.1738281,0.1879883 15.3261719,1.5537109 13.8496094,2.0190429 C13.4990235,2.1298827 13.0048828,2.2675781 12.4394531,2.4252929 C9.7236328,3.1831054 7.4130859,3.8725585 6.6464843,4.6367187 C5.7931519,5.4887695 5.232605,8.8439331 5.0516968,10.0820923 C5.0640869,10.0801392 5.0772705,10.0806885 5.0896607,10.0787964 C5.3031617,8.6881104 5.8459473,5.6860352 6.6464844,4.8867188 C7.413086,4.1225586 9.7236328,3.4331055 12.4394532,2.675293 C13.0048828,2.5175781 13.4990234,2.3798828 13.8496094,2.269043 Z" id="Shape" fill="#FFFFFF" opacity="0.2"></path>
            <path d="M6.1464844,14.8253908 C6.6044922,15.2819328 7.1835938,15.4655266 7.8017578,15.4655266 C8.8105469,15.4650383 9.9238281,14.9757815 10.7832031,14.3839846 C11.8935547,13.6203127 13.2050781,13.0534182 14.0478515,12.9733401 C14.1874961,12.9601565 14.3203124,12.9542971 14.4511718,12.9479495 C15.1728515,12.9142581 15.9199218,12.8795901 17.2939452,11.8825198 C18.0322265,11.346387 18.4570311,10.6476565 18.9062499,9.9074221 C19.524414,8.8903323 20.1630858,7.8385744 21.7499999,6.9206057 L22,6.7765627 L22,6.5265627 L21.75,6.6706057 C20.1630859,7.5885745 19.5244141,8.6403323 18.90625,9.6574221 C18.4570312,10.3976565 18.0322266,11.0963869 17.2939453,11.6325198 C15.9199219,12.6295901 15.1728515,12.6642581 14.4511719,12.6979495 C14.3203125,12.7042972 14.1874962,12.7101565 14.0478516,12.7233401 C13.2050782,12.8034182 11.8935547,13.3703128 10.7832032,14.1339846 C9.9238282,14.7257815 8.8105469,15.2150383 7.8017579,15.2155266 C7.1835938,15.2155266 6.6044923,15.0319328 6.1464845,14.5753908 C5.9289552,14.3582277 5.812256,14.0923586 5.7837526,13.7976198 C5.7521362,14.1942873 5.8691406,14.5484743 6.1464844,14.8253908 Z" id="Shape" fill="#000000" opacity="0.1"></path>
            <path d="M10.7832031,14.3837891 C9.9238281,14.975586 8.8105468,15.4648438 7.8017578,15.4653321 C7.1836548,15.4653321 6.6045532,15.2816773 6.1466064,14.8253175 L6.1464843,14.8253785 L10.8453368,19.524231 C11.5680542,18.5333862 12,17.317627 12,16 C12,15.25177 11.8475342,14.5426025 11.5956421,13.881897 C11.3197632,14.036499 11.0454102,14.2034302 10.7832031,14.3837891 Z" id="Shape" fill="url(#linearGradient-1)"></path>
            <path d="M17.6787109,0.1005859 L17.4150391,0 L17.1923828,0.1738281 C17.1738281,0.1879883 15.3261719,1.5537109 13.8496094,2.0190429 C13.4990235,2.1298827 13.0048828,2.2675781 12.4394531,2.4252929 C9.7236328,3.1831054 7.4130859,3.8725585 6.6464843,4.6367187 C5.7931519,5.4887695 5.232605,8.8439331 5.0516968,10.0820923 C5.0532227,10.0818482 5.0548706,10.0819092 5.0563965,10.0816651 C2.1956787,10.5365601 0,13.0131836 0,16 C0,19.3085938 2.6914063,22 6,22 C9.3085937,22 12,19.3085937 12,16 C12,15.2515259 11.8560791,14.5376587 11.6046143,13.8763428 C12.4938965,13.3791504 13.4063111,13.0341187 14.0478516,12.9731446 C14.1874962,12.959961 14.3203125,12.9541016 14.4511719,12.947754 C15.1728516,12.9140626 15.9199219,12.8793946 17.2939453,11.8823243 C18.0322266,11.3461915 18.4570312,10.647461 18.90625,9.9072266 C19.5244141,8.8901368 20.1630859,7.8383789 21.75,6.9204102 L22,6.7763672 L22,6.487793 C22,1.7392578 17.7216797,0.1171875 17.6787109,0.1005859 Z M9.0689697,10.406189 L9.8720093,8.3999024 C10.1434326,8.3225709 10.5812989,8.1919556 10.9267578,8.0600586 C11.0332031,8.1206055 11.1533203,8.1728516 11.2802734,8.2285156 C11.4863281,8.3188476 11.711914,8.4174804 11.8876953,8.5551758 C11.3970337,9.2418213 10.1550903,9.9415894 9.0689697,10.406189 Z" id="Shape" fill="url(#linearGradient-2)"></path>
        </g>
    </g>
</svg>